<svg
 xmlns="http://www.w3.org/2000/svg"
 xmlns:xlink="http://www.w3.org/1999/xlink"
 width="27px" height="17px">
<path fill-rule="evenodd" d="M25.326,5.426 C25.308,5.406 25.292,5.387 25.271,5.367 L24.325,4.489 C25.110,4.317 25.954,3.685 25.954,3.036 C25.954,2.280 24.864,2.012 23.933,2.012 C22.960,2.012 22.847,2.653 22.835,3.107 L20.395,0.842 C19.898,0.370 18.958,-0.002 18.254,-0.002 L13.500,-0.002 L13.499,-0.002 L8.744,-0.002 C8.041,-0.002 7.101,0.370 6.605,0.842 L4.164,3.107 C4.151,2.653 4.039,2.012 3.066,2.012 C2.135,2.012 1.045,2.280 1.045,3.036 C1.045,3.685 1.890,4.317 2.675,4.489 L1.729,5.367 C1.707,5.387 1.692,5.406 1.673,5.426 C0.661,6.259 -0.000,7.802 -0.000,8.923 L-0.000,12.252 C-0.000,13.060 0.331,13.793 0.866,14.339 L0.866,15.630 C0.866,16.385 1.523,17.000 2.331,17.000 L4.102,17.000 C4.910,17.000 5.566,16.386 5.566,15.630 L5.566,15.300 L13.499,15.300 L13.500,15.300 L21.433,15.300 L21.433,15.630 C21.433,16.386 22.089,17.000 22.898,17.000 L24.668,17.000 C25.477,17.000 26.132,16.385 26.132,15.630 L26.132,14.339 C26.668,13.793 26.999,13.060 26.999,12.252 L26.999,8.923 C27.000,7.802 26.338,6.259 25.326,5.426 ZM7.501,1.849 C7.844,1.573 8.445,1.364 8.744,1.364 L13.499,1.364 L13.500,1.364 L18.256,1.364 C18.555,1.364 19.155,1.573 19.498,1.849 L22.699,4.833 L13.500,4.833 L13.499,4.833 L4.301,4.833 L7.501,1.849 ZM1.098,8.419 C1.098,7.599 1.765,6.934 2.588,6.934 C3.411,6.934 6.099,8.452 6.099,9.272 C6.099,10.092 3.411,9.902 2.588,9.902 C1.765,9.902 1.098,9.239 1.098,8.419 ZM13.499,12.341 L13.500,12.341 M13.500,13.841 L13.499,13.841 M17.993,11.316 L13.500,11.316 L13.499,11.316 L9.006,11.316 C8.069,11.316 7.309,10.205 7.309,8.834 L13.499,8.834 L13.500,8.834 L19.691,8.834 C19.691,10.205 18.930,11.316 17.993,11.316 ZM24.412,9.902 C23.589,9.902 20.901,10.091 20.901,9.272 C20.901,8.454 23.589,6.934 24.412,6.934 C25.235,6.934 25.901,7.599 25.901,8.419 C25.901,9.238 25.235,9.902 24.412,9.902 Z"/>
</svg>