<svg
 xmlns="http://www.w3.org/2000/svg"
 xmlns:xlink="http://www.w3.org/1999/xlink"
 width="24px" height="18px">
<path fill-rule="evenodd" d="M21.893,-0.005 L2.115,-0.005 C0.954,-0.005 0.006,0.927 0.006,2.072 L0.006,15.921 C0.006,17.062 0.950,17.998 2.115,17.998 L21.893,17.998 C23.052,17.998 24.002,17.069 24.002,15.921 L24.002,2.072 C24.002,0.931 23.059,-0.005 21.893,-0.005 ZM21.602,1.380 L12.049,10.789 L2.413,1.380 L21.602,1.380 ZM1.412,15.634 L1.412,2.352 L8.184,8.965 L1.412,15.634 ZM2.407,16.614 L9.182,9.940 L11.556,12.258 C11.831,12.527 12.275,12.526 12.548,12.256 L14.863,9.976 L21.602,16.614 L2.407,16.614 ZM22.596,15.634 L15.857,8.997 L22.596,2.359 L22.596,15.634 Z"/>
</svg>