<svg
 xmlns="http://www.w3.org/2000/svg"
 xmlns:xlink="http://www.w3.org/1999/xlink"
 width="27px" height="24px">
<path fill-rule="evenodd" d="M26.164,12.181 L13.401,1.630 L0.716,12.303 L0.003,11.328 L13.321,0.122 L13.328,0.131 L13.440,0.000 L26.996,11.206 L26.164,12.181 ZM4.521,22.778 L10.467,22.778 L10.467,15.469 L10.467,14.252 L16.412,14.252 L16.412,15.469 L16.412,22.778 L22.358,22.778 L22.358,11.815 L23.547,11.815 L23.547,23.996 L22.358,23.996 L15.224,23.996 L15.224,22.778 L15.224,15.469 L11.656,15.469 L11.656,22.778 L11.656,23.996 L4.521,23.996 L3.332,23.996 L3.332,11.815 L4.521,11.815 L4.521,22.778 Z"/>
</svg>