<svg
 xmlns="http://www.w3.org/2000/svg"
 xmlns:xlink="http://www.w3.org/1999/xlink"
 width="18px" height="24px">
<path fill-rule="evenodd" d="M16.483,12.758 L9.969,23.655 C9.844,23.864 9.618,23.994 9.373,23.996 C9.371,23.996 9.369,23.996 9.367,23.996 C9.125,23.996 8.899,23.870 8.771,23.663 L2.088,12.872 C1.265,11.542 0.831,10.008 0.831,8.436 C0.831,3.784 4.608,0.000 9.250,0.000 C13.893,0.000 17.670,3.784 17.670,8.436 C17.670,9.961 17.259,11.456 16.483,12.758 ZM9.250,1.396 C5.382,1.396 2.225,4.560 2.225,8.436 C2.225,9.746 2.596,11.024 3.280,12.131 L9.357,21.943 L15.278,12.036 C15.925,10.952 16.271,9.707 16.271,8.436 C16.271,4.560 13.119,1.396 9.250,1.396 ZM9.250,12.654 C6.898,12.654 5.041,10.747 5.041,8.436 C5.041,6.110 6.929,4.218 9.250,4.218 C11.571,4.218 13.460,6.110 13.460,8.436 C13.460,10.721 11.632,12.654 9.250,12.654 ZM9.250,5.615 C7.703,5.615 6.434,6.885 6.434,8.436 C6.434,9.991 7.695,11.258 9.250,11.258 C10.830,11.258 12.062,9.968 12.062,8.436 C12.062,6.885 10.798,5.615 9.250,5.615 Z"/>
</svg>