<svg
 xmlns="http://www.w3.org/2000/svg"
 xmlns:xlink="http://www.w3.org/1999/xlink"
 width="23px" height="23px">
<path fill-rule="evenodd" d="M16.530,23.000 C15.787,23.000 15.051,22.869 14.331,22.607 C11.160,21.455 8.217,19.579 5.819,17.181 C3.421,14.783 1.544,11.840 0.392,8.668 C0.022,7.649 -0.087,6.597 0.068,5.541 C0.213,4.552 0.596,3.592 1.176,2.765 C1.758,1.934 2.534,1.243 3.421,0.766 C4.366,0.258 5.398,-0.000 6.487,-0.000 C6.826,-0.000 7.119,0.237 7.190,0.568 L8.318,5.833 C8.369,6.071 8.296,6.319 8.124,6.491 L6.196,8.419 C8.014,12.035 10.965,14.985 14.581,16.804 L16.508,14.876 C16.681,14.704 16.929,14.630 17.167,14.681 L22.432,15.810 C22.763,15.881 23.000,16.173 23.000,16.512 C23.000,17.602 22.742,18.634 22.234,19.579 C21.757,20.465 21.066,21.242 20.235,21.824 C19.407,22.404 18.447,22.787 17.458,22.932 C17.148,22.977 16.839,23.000 16.530,23.000 L16.530,23.000 ZM5.913,1.469 C4.476,1.627 3.200,2.381 2.353,3.590 C1.400,4.949 1.178,6.621 1.743,8.177 C3.958,14.274 8.725,19.041 14.822,21.256 C16.378,21.821 18.051,21.599 19.410,20.647 C20.619,19.799 21.372,18.524 21.531,17.087 L17.248,16.169 L15.235,18.182 C15.021,18.396 14.695,18.453 14.421,18.324 C10.145,16.316 6.684,12.854 4.675,8.579 C4.546,8.304 4.603,7.979 4.818,7.765 L6.831,5.751 L5.913,1.469 Z"/>
</svg>