<svg
 xmlns="http://www.w3.org/2000/svg"
 xmlns:xlink="http://www.w3.org/1999/xlink"
 width="23px" height="23px">
<path fill-rule="evenodd" d="M11.500,23.000 C5.159,23.000 -0.000,17.841 -0.000,11.500 C-0.000,5.159 5.159,-0.000 11.500,-0.000 C17.841,-0.000 23.000,5.159 23.000,11.500 C23.000,17.841 17.841,23.000 11.500,23.000 ZM11.500,1.437 C5.951,1.437 1.437,5.951 1.437,11.500 C1.437,17.048 5.951,21.562 11.500,21.562 C17.049,21.562 21.562,17.048 21.562,11.500 C21.562,5.951 17.049,1.437 11.500,1.437 ZM10.781,11.797 L10.781,4.312 L12.219,4.312 L12.219,11.202 L16.321,15.304 L15.304,16.320 L10.781,11.797 Z"/>
</svg>