<svg
 xmlns="http://www.w3.org/2000/svg"
 xmlns:xlink="http://www.w3.org/1999/xlink"
 width="35px" height="35px">
<path fill-rule="evenodd" d="M17.498,35.007 C7.845,35.007 -0.008,27.153 -0.008,17.501 C-0.008,7.848 7.845,-0.006 17.498,-0.006 C27.151,-0.006 35.004,7.848 35.004,17.501 C35.004,27.153 27.151,35.007 17.498,35.007 ZM17.498,2.183 C9.051,2.183 2.180,9.054 2.180,17.501 C2.180,25.948 9.051,32.819 17.498,32.819 C25.944,32.819 32.816,25.948 32.816,17.501 C32.816,9.054 25.944,2.183 17.498,2.183 ZM16.404,25.160 L18.592,25.160 L18.592,27.348 L16.404,27.348 L16.404,25.160 ZM16.404,7.653 L18.592,7.653 L18.592,22.971 L16.404,22.971 L16.404,7.653 Z"/>
</svg>