<svg
 xmlns="http://www.w3.org/2000/svg"
 xmlns:xlink="http://www.w3.org/1999/xlink"
 width="39px" height="31px">
<path fill-rule="evenodd"  fill="rgb(194, 34, 33)"
 d="M38.164,25.492 C38.069,25.849 37.748,26.097 37.378,26.097 L37.378,28.544 C37.378,29.894 36.285,30.991 34.942,30.991 L30.067,30.991 C28.724,30.991 27.631,29.894 27.631,28.544 L27.631,27.416 L27.181,27.642 C27.068,27.699 26.943,27.728 26.818,27.728 L12.196,27.728 C12.070,27.728 11.945,27.699 11.832,27.642 L11.383,27.417 L11.383,28.544 C11.383,29.894 10.290,30.991 8.946,30.991 L4.072,30.991 C2.729,30.991 1.635,29.894 1.635,28.544 L1.635,26.097 C1.266,26.097 0.945,25.849 0.850,25.492 C0.816,25.363 0.010,22.290 0.010,18.756 C0.010,15.219 1.076,13.025 3.427,11.672 C4.450,9.315 7.378,2.708 8.420,1.818 C9.760,0.676 13.600,-0.006 18.694,-0.006 L20.320,-0.006 C25.414,-0.006 29.253,0.676 30.594,1.820 C31.635,2.709 34.560,9.312 35.585,11.671 C37.938,13.024 39.003,15.218 39.003,18.756 C39.003,22.290 38.198,25.363 38.164,25.492 ZM29.255,28.544 C29.255,28.994 29.621,29.360 30.067,29.360 L34.942,29.360 C35.389,29.360 35.754,28.994 35.754,28.544 L35.754,26.097 L30.260,26.097 L29.255,26.601 L29.255,28.544 ZM3.260,28.544 C3.260,28.994 3.625,29.360 4.072,29.360 L8.946,29.360 C9.393,29.360 9.759,28.994 9.759,28.544 L9.759,26.601 L8.755,26.097 L3.260,26.097 L3.260,28.544 ZM1.635,18.755 C1.635,19.610 1.688,20.438 1.765,21.203 L8.610,21.203 L6.074,18.656 C5.620,18.201 4.992,17.940 4.351,17.940 L1.664,17.940 C1.650,18.204 1.635,18.467 1.635,18.755 ZM29.538,3.060 C28.916,2.530 26.269,1.626 20.320,1.626 L18.694,1.626 C12.745,1.626 10.098,2.530 9.473,3.063 C8.973,3.531 7.223,7.128 5.572,10.838 C8.297,10.125 12.806,9.783 19.507,9.783 C26.208,9.783 30.717,10.125 33.443,10.838 C31.791,7.127 30.040,3.530 29.538,3.060 ZM34.567,12.953 C32.620,11.931 27.554,11.414 19.507,11.414 C11.460,11.414 6.394,11.931 4.447,12.953 C3.064,13.679 2.259,14.723 1.888,16.308 L4.352,16.308 C5.437,16.308 6.456,16.732 7.224,17.503 L11.146,21.441 C11.378,21.674 11.448,22.025 11.321,22.330 C11.195,22.635 10.899,22.834 10.571,22.834 L1.974,22.834 C2.081,23.512 2.193,24.074 2.278,24.465 L8.946,24.465 C9.071,24.465 9.197,24.495 9.310,24.552 L12.387,26.097 L26.626,26.097 L29.705,24.552 C29.818,24.495 29.943,24.465 30.069,24.465 L36.737,24.465 C36.821,24.074 36.933,23.512 37.040,22.835 L28.443,22.835 C28.115,22.835 27.817,22.636 27.692,22.330 C27.568,22.025 27.637,21.674 27.868,21.441 L31.790,17.503 C32.558,16.732 33.577,16.308 34.662,16.308 L37.126,16.308 C36.755,14.723 35.949,13.679 34.567,12.953 ZM37.349,17.940 L34.662,17.940 C34.021,17.940 33.393,18.201 32.938,18.656 L30.404,21.203 L37.248,21.203 C37.325,20.438 37.378,19.610 37.378,18.755 C37.378,18.467 37.364,18.204 37.349,17.940 ZM25.005,22.540 C24.851,22.726 24.621,22.834 24.381,22.834 L14.633,22.834 C14.393,22.834 14.163,22.726 14.009,22.540 L9.947,17.646 C9.744,17.403 9.702,17.063 9.835,16.778 C9.970,16.491 10.256,16.308 10.571,16.308 L28.443,16.308 C28.758,16.308 29.044,16.491 29.179,16.778 C29.313,17.063 29.270,17.403 29.067,17.646 L25.005,22.540 ZM12.305,17.940 L15.013,21.203 L23.999,21.203 L26.708,17.940 L12.305,17.940 Z"/>
</svg>