<svg
 xmlns="http://www.w3.org/2000/svg"
 xmlns:xlink="http://www.w3.org/1999/xlink"
 width="37px" height="37px">
<path fill-rule="evenodd"  fill="rgb(194, 34, 33)"
 d="M18.500,37.000 C8.282,37.000 -0.000,28.717 -0.000,18.500 C-0.000,8.282 8.282,-0.001 18.500,-0.001 C28.717,-0.001 37.000,8.282 37.000,18.500 C36.988,28.712 28.712,36.988 18.500,37.000 ZM18.500,1.389 C9.050,1.389 1.389,9.050 1.389,18.500 C1.389,27.949 9.050,35.610 18.500,35.610 C27.950,35.610 35.610,27.949 35.610,18.500 C35.600,9.054 27.945,1.400 18.500,1.389 ZM15.508,24.627 C15.377,24.757 15.201,24.830 15.017,24.830 C14.832,24.830 14.656,24.757 14.525,24.627 L10.217,20.319 C9.947,20.046 9.948,19.606 10.221,19.336 C10.493,19.065 10.933,19.066 11.204,19.339 L15.017,23.155 L25.795,12.372 C26.068,12.101 26.508,12.101 26.780,12.373 C27.052,12.645 27.052,13.086 26.779,13.358 L15.508,24.627 Z"/>
</svg>