<svg
 xmlns="http://www.w3.org/2000/svg"
 xmlns:xlink="http://www.w3.org/1999/xlink"
 width="39px" height="39px">
<path fill-rule="evenodd"  fill="rgb(194, 34, 33)"
 d="M38.360,39.000 L3.249,39.000 C1.455,38.997 0.000,37.539 -0.002,35.741 L-0.002,13.582 C-0.005,12.032 1.083,10.696 2.599,10.388 L2.599,7.065 C2.599,6.704 2.890,6.413 3.249,6.413 L4.245,6.413 L36.459,-0.008 C36.811,-0.078 37.154,0.152 37.224,0.505 L38.394,6.420 C38.736,6.438 39.006,6.720 39.009,7.065 L39.009,38.348 C39.009,38.708 38.718,39.000 38.360,39.000 ZM2.599,11.739 C2.324,11.837 2.073,11.995 1.866,12.202 L1.862,12.199 C1.104,12.966 1.107,14.203 1.869,14.966 C1.968,15.062 2.077,15.148 2.194,15.221 C2.232,15.249 2.273,15.265 2.312,15.287 C2.391,15.332 2.472,15.371 2.556,15.405 C2.570,15.410 2.585,15.413 2.599,15.417 L2.599,11.739 ZM36.073,1.398 L10.913,6.413 L37.067,6.413 L36.073,1.398 ZM37.709,7.716 L3.900,7.716 L3.900,15.537 L14.991,15.537 C15.302,12.829 17.433,10.692 20.136,10.380 C23.346,10.010 26.248,12.319 26.618,15.537 L37.709,15.537 L37.709,7.716 ZM16.299,15.537 L25.309,15.537 C25.022,13.532 23.451,11.957 21.451,11.670 C18.963,11.311 16.656,13.043 16.299,15.537 ZM37.709,24.661 L28.606,24.661 L28.606,29.875 L37.709,29.875 L37.709,24.661 ZM37.709,31.179 L27.957,31.179 C27.598,31.179 27.306,30.887 27.306,30.527 L27.306,24.010 C27.306,23.650 27.598,23.358 27.957,23.358 L37.709,23.358 L37.709,16.840 L3.249,16.840 C3.053,16.839 2.857,16.820 2.663,16.783 C2.602,16.772 2.544,16.753 2.483,16.738 C2.353,16.708 2.225,16.669 2.100,16.622 C2.035,16.597 1.970,16.569 1.905,16.539 C1.789,16.486 1.675,16.425 1.566,16.358 C1.507,16.322 1.448,16.287 1.390,16.247 C1.360,16.226 1.328,16.211 1.299,16.189 L1.299,35.741 C1.299,36.821 2.172,37.696 3.249,37.696 L37.709,37.696 L37.709,31.179 ZM31.207,27.920 L29.907,27.920 L29.907,26.617 L31.207,26.617 L31.207,27.920 ZM36.409,9.672 L36.409,13.582 L35.108,13.582 L35.108,10.323 L31.857,10.323 L31.857,9.020 L35.759,9.020 C36.118,9.020 36.409,9.311 36.409,9.672 ZM6.500,13.582 L5.200,13.582 L5.200,9.672 C5.200,9.311 5.491,9.020 5.850,9.020 L9.751,9.020 L9.751,10.323 L6.500,10.323 L6.500,13.582 Z"/>
</svg>