<svg
 xmlns="http://www.w3.org/2000/svg"
 xmlns:xlink="http://www.w3.org/1999/xlink"
 width="46px" height="39px">
<path fill-rule="evenodd"  fill="rgb(194, 34, 33)"
 d="M39.100,7.647 L28.367,7.647 L28.367,6.882 C28.362,3.083 25.276,0.004 21.467,-0.000 L6.900,-0.000 C3.091,0.004 0.004,3.083 0.000,6.882 L0.000,16.058 C0.004,19.857 3.091,22.936 6.900,22.941 L7.667,22.941 L7.667,29.058 C7.667,29.367 7.853,29.646 8.140,29.765 C8.426,29.883 8.756,29.817 8.975,29.599 L15.651,22.941 L17.633,22.941 L17.633,23.705 C17.638,27.504 20.724,30.583 24.533,30.587 L28.816,30.587 L37.025,38.775 C37.244,38.993 37.574,39.059 37.860,38.941 C38.146,38.823 38.333,38.544 38.333,38.235 L38.333,30.587 L39.100,30.587 C42.909,30.583 45.995,27.504 46.000,23.705 L46.000,14.529 C45.995,10.730 42.909,7.651 39.100,7.647 ZM15.333,21.411 C15.130,21.411 14.935,21.492 14.791,21.635 L9.200,27.212 L9.200,22.176 C9.200,21.754 8.857,21.411 8.433,21.411 L6.900,21.411 C3.937,21.408 1.537,19.013 1.533,16.058 L1.533,6.882 C1.537,3.927 3.937,1.533 6.900,1.529 L21.467,1.529 C24.429,1.533 26.830,3.927 26.833,6.882 L26.833,7.647 L24.533,7.647 C20.724,7.651 17.638,10.730 17.633,14.529 L17.633,21.411 L15.333,21.411 ZM44.467,23.705 C44.463,26.660 42.063,29.055 39.100,29.058 L37.567,29.058 C37.143,29.058 36.800,29.401 36.800,29.823 L36.800,36.388 L29.675,29.282 C29.532,29.139 29.337,29.058 29.133,29.058 L24.533,29.058 C21.571,29.055 19.170,26.660 19.167,23.705 L19.167,14.529 C19.170,11.574 21.571,9.180 24.533,9.176 L39.100,9.176 C42.063,9.180 44.463,11.574 44.467,14.529 L44.467,23.705 Z"/>
</svg>