<svg
 xmlns="http://www.w3.org/2000/svg"
 xmlns:xlink="http://www.w3.org/1999/xlink"
 width="31px" height="40px">
<path fill-rule="evenodd"  fill="rgb(194, 34, 33)"
 d="M30.354,5.160 C25.421,5.160 20.705,3.627 16.716,0.729 L15.880,0.121 C15.654,-0.043 15.346,-0.043 15.120,0.121 L14.284,0.729 C10.295,3.627 5.579,5.160 0.646,5.160 C0.289,5.160 -0.000,5.449 -0.000,5.805 L-0.000,18.026 C-0.000,26.918 5.189,35.143 13.219,38.980 L15.222,39.936 C15.309,39.978 15.405,40.000 15.500,40.000 C15.595,40.000 15.691,39.978 15.779,39.936 L17.782,38.980 C25.811,35.143 31.000,26.918 31.000,18.026 L31.000,5.805 C31.000,5.449 30.711,5.160 30.354,5.160 L30.354,5.160 ZM29.708,18.026 C29.708,26.424 24.808,34.192 17.224,37.815 L15.500,38.640 L13.776,37.816 C6.192,34.192 1.292,26.424 1.292,18.026 L1.292,6.442 C6.264,6.313 11.007,4.706 15.043,1.772 L15.500,1.441 L15.957,1.772 C19.993,4.705 24.736,6.313 29.708,6.442 L29.708,18.026 Z"/>
</svg>