<svg
 xmlns="http://www.w3.org/2000/svg"
 xmlns:xlink="http://www.w3.org/1999/xlink"
 width="44px" height="48px">
<path fill-rule="evenodd"  fill="rgb(194, 34, 33)"
 d="M31.527,17.751 C31.837,17.522 32.264,17.557 32.535,17.834 C32.807,18.113 32.840,18.551 32.616,18.869 L25.312,29.228 C24.832,29.906 24.092,30.331 23.280,30.396 C23.206,30.401 23.134,30.405 23.061,30.405 C22.327,30.405 21.621,30.107 21.098,29.569 C20.523,28.979 20.229,28.164 20.292,27.331 C20.355,26.498 20.769,25.738 21.428,25.246 L31.527,17.751 ZM22.200,28.438 C22.453,28.697 22.802,28.824 23.157,28.800 C23.513,28.771 23.838,28.585 24.050,28.288 L28.505,21.970 L22.344,26.542 C22.057,26.756 21.875,27.090 21.847,27.456 C21.819,27.821 21.949,28.179 22.200,28.438 ZM40.701,11.124 L39.597,9.993 L37.922,11.710 C38.981,12.881 39.914,14.171 40.703,15.559 C40.713,15.574 40.728,15.583 40.737,15.599 C40.746,15.615 40.746,15.634 40.753,15.650 C42.534,18.819 43.558,22.490 43.558,26.403 C43.558,30.317 42.534,33.987 40.753,37.156 C40.745,37.172 40.746,37.191 40.736,37.207 C40.724,37.231 40.704,37.248 40.690,37.269 C38.850,40.499 36.216,43.198 33.066,45.081 C33.051,45.092 33.043,45.107 33.027,45.117 C33.003,45.131 32.978,45.137 32.953,45.148 C29.910,46.942 26.391,47.981 22.642,48.007 C22.635,48.007 22.630,48.011 22.623,48.011 C22.619,48.011 22.614,48.008 22.610,48.008 C22.571,48.008 22.535,48.011 22.497,48.011 C20.918,48.011 19.328,47.826 17.771,47.458 C17.351,47.359 17.088,46.929 17.185,46.499 C17.281,46.068 17.700,45.794 18.119,45.898 C19.349,46.187 20.599,46.347 21.845,46.391 L21.845,44.810 C21.845,44.367 22.194,44.010 22.625,44.010 C23.056,44.010 23.405,44.367 23.405,44.810 L23.405,46.385 C26.339,46.246 29.103,45.438 31.562,44.108 L30.793,42.742 C30.576,42.360 30.705,41.870 31.078,41.649 C31.450,41.428 31.927,41.557 32.143,41.942 L32.911,43.304 C35.351,41.716 37.425,39.589 38.973,37.085 L37.645,36.298 C37.272,36.077 37.144,35.589 37.360,35.205 C37.574,34.821 38.051,34.691 38.425,34.912 L39.756,35.701 C41.071,33.143 41.861,30.261 41.979,27.203 L40.438,27.203 C40.007,27.203 39.658,26.845 39.658,26.403 C39.658,25.960 40.007,25.602 40.438,25.602 L41.979,25.602 C41.861,22.544 41.071,19.661 39.756,17.104 L38.425,17.893 C38.302,17.966 38.168,18.000 38.035,18.000 C37.766,18.000 37.505,17.857 37.360,17.600 C37.144,17.217 37.271,16.727 37.644,16.507 L38.972,15.720 C37.423,13.216 35.350,11.088 32.909,9.500 L32.142,10.863 C31.998,11.120 31.735,11.263 31.466,11.263 C31.334,11.263 31.199,11.229 31.076,11.156 C30.703,10.935 30.576,10.446 30.791,10.063 L31.560,8.696 C29.102,7.366 26.338,6.558 23.404,6.420 L23.404,7.996 C23.404,8.439 23.055,8.796 22.623,8.796 C22.192,8.796 21.843,8.439 21.843,7.996 L21.843,6.414 C21.614,6.426 21.378,6.440 21.123,6.460 L20.285,6.527 C19.559,6.612 18.835,6.739 18.117,6.908 C17.697,7.008 17.278,6.738 17.182,6.307 C17.086,5.876 17.349,5.446 17.768,5.348 C18.600,5.153 19.441,5.012 20.283,4.920 L20.283,3.995 L19.113,3.995 C18.037,3.995 17.163,3.098 17.163,1.994 C17.163,0.890 18.037,-0.006 19.113,-0.006 L26.134,-0.006 C27.209,-0.006 28.085,0.890 28.085,1.994 C28.085,3.098 27.210,3.995 26.135,3.995 L24.965,3.995 L24.965,4.948 C27.855,5.296 30.566,6.246 32.978,7.672 C32.994,7.681 33.012,7.681 33.028,7.690 C33.044,7.700 33.053,7.714 33.067,7.725 C34.421,8.534 35.678,9.492 36.819,10.579 L38.494,8.861 L37.390,7.728 L40.701,4.334 L44.010,7.728 L40.701,11.124 ZM26.134,2.394 C26.348,2.394 26.524,2.214 26.524,1.994 C26.524,1.774 26.348,1.594 26.134,1.594 L19.113,1.594 C18.899,1.594 18.723,1.774 18.723,1.994 C18.723,2.214 18.899,2.394 19.113,2.394 L21.843,2.394 L21.843,4.812 C21.937,4.808 22.022,4.808 22.112,4.806 C22.240,4.804 22.368,4.795 22.497,4.795 C22.516,4.795 22.535,4.797 22.555,4.797 C22.577,4.797 22.601,4.795 22.623,4.795 C22.873,4.795 23.132,4.801 23.404,4.812 L23.404,2.394 L26.134,2.394 ZM40.699,6.597 L39.596,7.728 L40.699,8.861 L41.802,7.728 L40.699,6.597 ZM15.603,40.809 L10.142,40.809 C9.711,40.809 9.362,40.451 9.362,40.008 C9.362,39.565 9.711,39.208 10.142,39.208 L15.603,39.208 C16.034,39.208 16.383,39.565 16.383,40.008 C16.383,40.451 16.034,40.809 15.603,40.809 ZM15.603,35.206 L5.461,35.206 C5.030,35.206 4.681,34.849 4.681,34.407 C4.681,33.964 5.030,33.606 5.461,33.606 L15.603,33.606 C16.034,33.606 16.383,33.964 16.383,34.407 C16.383,34.849 16.034,35.206 15.603,35.206 ZM15.603,29.605 L0.781,29.605 C0.350,29.605 0.001,29.247 0.001,28.804 C0.001,28.362 0.350,28.004 0.781,28.004 L15.603,28.004 C16.034,28.004 16.383,28.362 16.383,28.804 C16.383,29.247 16.034,29.605 15.603,29.605 ZM15.603,24.002 L3.901,24.002 C3.470,24.002 3.121,23.645 3.121,23.202 C3.121,22.759 3.470,22.402 3.901,22.402 L15.603,22.402 C16.034,22.402 16.383,22.759 16.383,23.202 C16.383,23.645 16.034,24.002 15.603,24.002 ZM15.603,18.400 L7.802,18.400 C7.370,18.400 7.022,18.043 7.022,17.600 C7.022,17.158 7.370,16.799 7.802,16.799 L15.603,16.799 C16.034,16.799 16.383,17.158 16.383,17.600 C16.383,18.043 16.034,18.400 15.603,18.400 ZM15.603,12.798 L11.702,12.798 C11.271,12.798 10.922,12.440 10.922,11.997 C10.922,11.555 11.271,11.198 11.702,11.198 L15.603,11.198 C16.034,11.198 16.383,11.555 16.383,11.997 C16.383,12.440 16.034,12.798 15.603,12.798 Z"/>
</svg>