<?xml version="1.0" encoding="utf-8"?><svg viewBox="0 0 43 70" xmlns="http://www.w3.org/2000/svg" xmlns:xlink="http://www.w3.org/1999/xlink"><style>:root>svg{display:none}:root>svg:target{display:block}</style><svg viewBox="0 0 23 15" id="ic_arrow" xmlns="http://www.w3.org/2000/svg"><path fill-rule="evenodd" d="M21.62 8.325l-.131-.132-6.71 6.82-.784-.683L20.224 8H0V7h20.295L14.62 1.325l.76-.651L21.705 7H22v.295l.38.379-.76.651z"/></svg><svg viewBox="0 0 27 17" id="ic_auto" xmlns="http://www.w3.org/2000/svg"><path fill-rule="evenodd" d="M25.326 5.426c-.018-.02-.034-.039-.055-.059l-.946-.878c.785-.172 1.629-.804 1.629-1.453 0-.756-1.09-1.024-2.021-1.024-.973 0-1.086.641-1.098 1.095L20.395.842c-.497-.472-1.437-.844-2.141-.844h-9.51c-.703 0-1.643.372-2.139.844L4.164 3.107c-.013-.454-.125-1.095-1.098-1.095-.931 0-2.021.268-2.021 1.024 0 .649.845 1.281 1.63 1.453l-.946.878c-.022.02-.037.039-.056.059C.661 6.259 0 7.802 0 8.923v3.329c0 .808.331 1.541.866 2.087v1.291c0 .755.657 1.37 1.465 1.37h1.771c.808 0 1.464-.614 1.464-1.37v-.33h15.867v.33c0 .756.656 1.37 1.465 1.37h1.77c.809 0 1.464-.615 1.464-1.37v-1.291a2.97 2.97 0 0 0 .867-2.087V8.923c.001-1.121-.661-2.664-1.673-3.497zM7.501 1.849c.343-.276.944-.485 1.243-.485h9.512c.299 0 .899.209 1.242.485l3.201 2.984H4.301l3.2-2.984zm-6.403 6.57c0-.82.667-1.485 1.49-1.485s3.511 1.518 3.511 2.338c0 .82-2.688.63-3.511.63s-1.49-.663-1.49-1.483zm12.401 3.922h.001m0 1.5h-.001m4.494-2.525H9.006c-.937 0-1.697-1.111-1.697-2.482H19.691c0 1.371-.761 2.482-1.698 2.482zm6.419-1.414c-.823 0-3.511.189-3.511-.63 0-.818 2.688-2.338 3.511-2.338s1.489.665 1.489 1.485c0 .819-.666 1.483-1.489 1.483z"/></svg><svg viewBox="0 0 24 18" id="ic_email" xmlns="http://www.w3.org/2000/svg"><path fill-rule="evenodd" d="M21.893-.005H2.115C.954-.005.006.927.006 2.072v13.849c0 1.141.944 2.077 2.109 2.077h19.778c1.159 0 2.109-.929 2.109-2.077V2.072c0-1.141-.943-2.077-2.109-2.077zm-.291 1.385l-9.553 9.409L2.413 1.38h19.189zM1.412 15.634V2.352l6.772 6.613-6.772 6.669zm.995.98L9.182 9.94l2.374 2.318a.71.71 0 0 0 .992-.002l2.315-2.28 6.739 6.638H2.407zm20.189-.98l-6.739-6.637 6.739-6.638v13.275z"/></svg><svg viewBox="0 0 27 24" id="ic_home" xmlns="http://www.w3.org/2000/svg"><path fill-rule="evenodd" d="M26.164 12.181L13.401 1.63.716 12.303l-.713-.975L13.321.122l.007.009L13.44 0l13.556 11.206-.832.975zM4.521 22.778h5.946v-8.526h5.945v8.526h5.946V11.815h1.189v12.181h-8.323V15.469h-3.568V23.996H3.332V11.815h1.189v10.963z"/></svg><svg viewBox="0 0 18 24" id="ic_location" xmlns="http://www.w3.org/2000/svg"><path fill-rule="evenodd" d="M16.483 12.758L9.969 23.655a.702.702 0 0 1-.596.341h-.006a.702.702 0 0 1-.596-.333L2.088 12.872A8.422 8.422 0 0 1 .831 8.436C.831 3.784 4.608 0 9.25 0c4.643 0 8.42 3.784 8.42 8.436 0 1.525-.411 3.02-1.187 4.322zM9.25 1.396c-3.868 0-7.025 3.164-7.025 7.04 0 1.31.371 2.588 1.055 3.695l6.077 9.812 5.921-9.907a7.03 7.03 0 0 0 .993-3.6c0-3.876-3.152-7.04-7.021-7.04zm0 11.258a4.208 4.208 0 0 1-4.209-4.218A4.218 4.218 0 0 1 9.25 4.218a4.219 4.219 0 0 1 4.21 4.218c0 2.285-1.828 4.218-4.21 4.218zm0-7.039a2.828 2.828 0 0 0-2.816 2.821 2.821 2.821 0 0 0 2.816 2.822c1.58 0 2.812-1.29 2.812-2.822A2.824 2.824 0 0 0 9.25 5.615z"/></svg><svg viewBox="0 0 23 23" id="ic_phone" xmlns="http://www.w3.org/2000/svg"><path fill-rule="evenodd" d="M16.53 23a6.398 6.398 0 0 1-2.199-.393 23.44 23.44 0 0 1-8.512-5.426A23.438 23.438 0 0 1 .392 8.668a6.361 6.361 0 0 1-.324-3.127A6.534 6.534 0 0 1 3.421.766 6.407 6.407 0 0 1 6.487 0a.72.72 0 0 1 .703.568l1.128 5.265a.718.718 0 0 1-.194.658L6.196 8.419a18.915 18.915 0 0 0 8.385 8.385l1.927-1.928a.721.721 0 0 1 .659-.195l5.265 1.129a.718.718 0 0 1 .568.702c0 1.09-.258 2.122-.766 3.067a6.513 6.513 0 0 1-4.776 3.353 6.45 6.45 0 0 1-.928.068zM5.913 1.469a4.977 4.977 0 0 0-3.56 2.121 4.95 4.95 0 0 0-.61 4.587 21.802 21.802 0 0 0 13.079 13.079 4.954 4.954 0 0 0 4.588-.609 4.982 4.982 0 0 0 2.121-3.56l-4.283-.918-2.013 2.013a.719.719 0 0 1-.814.142 20.35 20.35 0 0 1-9.746-9.745.717.717 0 0 1 .143-.814l2.013-2.014-.918-4.282z"/></svg><svg viewBox="0 0 17 14" id="ic_reply" xmlns="http://www.w3.org/2000/svg"><path fill-rule="evenodd" d="M10.387 3.73V-.004l6.61 6.534-6.61 6.535V9.238c-4.721 0-8.026 1.493-10.387 4.761C.944 9.331 3.777 4.663 10.387 3.73z"/></svg><svg viewBox="0 0 43 70" id="ic_slider_arrow_left" xmlns="http://www.w3.org/2000/svg"><path d="M43 70V0H0v70zM19 34.6l7.9 7.9a.76.76 0 0 1 .2.5c0 .2-.1.3-.2.5l-1 1a.76.76 0 0 1-.5.2c-.2 0-.3-.1-.5-.2l-9.4-9.4a.76.76 0 0 1-.2-.5c0-.2.1-.3.2-.5l9.4-9.4a.76.76 0 0 1 .5-.2c.2 0 .3.1.5.2l1 1a.76.76 0 0 1 .2.5c0 .2-.1.3-.2.5z" fill-rule="evenodd"/></svg><svg viewBox="0 0 43 70" id="ic_slider_arrow_right" xmlns="http://www.w3.org/2000/svg"><path d="M0 0v70h43V0zm28.8 35.5l-9.6 9.3a.76.76 0 0 1-.5.2c-.2 0-.3-.1-.5-.2l-1-1a.76.76 0 0 1-.2-.5c0-.2.1-.3.2-.5l8.1-7.9-8.1-7.9a.76.76 0 0 1-.2-.5c0-.2.1-.3.2-.5l1-1a.76.76 0 0 1 .5-.2c.2 0 .3.1.5.2l9.6 9.3a.76.76 0 0 1 .2.5 1.17 1.17 0 0 1-.2.7z" fill-rule="evenodd"/></svg><svg viewBox="0 0 23 23" id="ic_time" xmlns="http://www.w3.org/2000/svg"><path fill-rule="evenodd" d="M11.5 23C5.159 23 0 17.841 0 11.5S5.159 0 11.5 0 23 5.159 23 11.5 17.841 23 11.5 23zm0-21.563C5.951 1.437 1.437 5.951 1.437 11.5c0 5.548 4.514 10.062 10.063 10.062S21.562 17.048 21.562 11.5c0-5.549-4.513-10.063-10.062-10.063zm-.719 10.36V4.312h1.438v6.89l4.102 4.102-1.017 1.016-4.523-4.523z"/></svg><svg viewBox="0 0 35 35" id="ic_warning" xmlns="http://www.w3.org/2000/svg"><path fill-rule="evenodd" d="M17.498 35.007c-9.653 0-17.506-7.854-17.506-17.506 0-9.653 7.853-17.507 17.506-17.507s17.506 7.854 17.506 17.507c0 9.652-7.853 17.506-17.506 17.506zm0-32.824C9.051 2.183 2.18 9.054 2.18 17.501s6.871 15.318 15.318 15.318c8.446 0 15.318-6.871 15.318-15.318S25.944 2.183 17.498 2.183zM16.404 25.16h2.188v2.188h-2.188V25.16zm0-17.507h2.188v15.318h-2.188V7.653z"/></svg></svg>